<?xml version="1.0" encoding="utf-8"?>
<!-- Generator: Adobe Illustrator 19.1.0, SVG Export Plug-In . SVG Version: 6.00 Build 0)  -->
<svg version="1.1" id="Layer_1" xmlns="http://www.w3.org/2000/svg" xmlns:xlink="http://www.w3.org/1999/xlink" x="0px" y="0px"
	 viewBox="0 0 157.6 167.2" style="enable-background:new 0 0 157.6 167.2;" xml:space="preserve">
<style type="text/css">
	.st0{fill:#444444;}
</style>
<g>
	<g>
		<path class="st0" d="M82.2,148.9h-6.3c0,0,0,0,0,0l-6.2-5.4c0,0,0,0,0,0v-11.5h18.8v11.5c0,0,0,0,0,0L82.2,148.9
			C82.2,148.9,82.2,148.9,82.2,148.9z M77.5,144.3h2.9l3.4-2.9v-4.8h-9.6v4.8L77.5,144.3z"/>
	</g>
	<g>
		<path class="st0" d="M88.3,163.8H69.6c-0.8,0-1.5-0.4-1.9-1c-0.4-0.7-0.5-1.5-0.2-2.2l7.3-16.2h8.3l7.3,16.2
			c0.3,0.7,0.3,1.5-0.2,2.2C89.8,163.4,89.1,163.8,88.3,163.8z M73.2,159.2h11.6l-4.6-10.3h-2.4L73.2,159.2z"/>
	</g>
	<g>
		<path class="st0" d="M79,117.5c-18.7,0-37-12.5-46.9-32.1c-5.9,1-12.1-4.1-14.2-11.7c-2.3-8,0.9-16,7-17.7c0.1,0,0.1,0,0.2-0.1
			C25.8,26.8,49.7,3.3,79,3.3c29.3,0,53.2,23.5,53.9,52.6c0.1,0,0.2,0,0.2,0.1c3.1,0.9,5.5,3.3,6.8,6.8c1.2,3.3,1.3,7.1,0.2,10.9
			c-2.1,7.6-8.3,12.7-14.3,11.7C116,104.9,97.7,117.5,79,117.5z M33.3,80.4c0.9,0,1.7,0.5,2.1,1.3c9,18.9,26.1,31.2,43.6,31.2
			c17.5,0,34.7-12.2,43.6-31.2c0.5-1.1,1.9-1.6,3-1.1c0.2,0.1,0.4,0.1,0.5,0.2c3.5,1,8.1-2.9,9.6-8.3c0.8-2.9,0.8-5.7-0.1-8.1
			c-0.8-2.1-2.1-3.5-3.8-4c-0.4-0.1-0.8-0.2-1.3-0.2c-1.3,0-2.3-1-2.3-2.3l0-0.7C128.3,30,106.2,7.9,79,7.9
			C51.8,7.9,29.6,30,29.6,57.3c0,1.3-1,3-2.3,3c-0.5,0-0.9,0.1-1.2,0.2c-3.7,1-5.4,6.6-3.9,12.1c1.5,5.4,6,9.3,9.6,8.3
			c0.2-0.1,0.4-0.1,0.6-0.2C32.7,80.4,33,80.4,33.3,80.4z"/>
	</g>
	<g>
		<path class="st0" d="M151.4,163.8H6.6v-10.1c0-21.4,11.8-38.9,26.3-38.9l17.5,0c0,0,0,0,0.1,0c7.3,11.7,18,13.3,28.5,13.3
			c10.5,0,21.2-1.6,28.5-13.3c0,0,0,0,0.1,0l17.5,0c14.5,0,26.3,17.4,26.3,38.9V163.8z M11.2,159.2h135.7v-5.5
			c0-18.9-9.8-34.3-21.8-34.3H110c-8.5,11.7-20.4,13.3-31,13.3c-10.6,0-22.5-1.6-31-13.3H32.9c-12,0-21.7,15.4-21.7,34.3V159.2z"/>
	</g>
	<g>
		<path class="st0" d="M103.2,52.5c-17.1,0-33.1-7.6-43.5-20.6c-6.6,10.8-18.6,18.5-31.5,20c-0.7,0.1-1.4-0.2-1.9-0.7
			c-0.5-0.5-0.7-1.2-0.6-1.9c4.1-26.2,27.3-45.9,54-45.9c24.4,0,46,17.5,52.1,42.4C124.1,50.3,115.2,52.5,103.2,52.5z M59.4,25.4
			c0.7,0,1.4,0.4,1.9,1c9.5,13.5,25.1,21.5,42,21.5c9.6,0,16.9-1.4,23.1-4.4c-6.6-21-25.5-35.6-46.7-35.6
			c-23.4,0-43.8,16.5-48.9,38.9c11.5-2.3,21.7-9.9,26.6-20.1c0.4-0.7,1.1-1.2,1.9-1.3C59.3,25.4,59.3,25.4,59.4,25.4z"/>
	</g>
</g>
</svg>
