<?xml version="1.0" encoding="utf-8"?>
<!-- Generator: Adobe Illustrator 19.1.0, SVG Export Plug-In . SVG Version: 6.00 Build 0)  -->
<svg version="1.1" id="Layer_1" xmlns="http://www.w3.org/2000/svg" xmlns:xlink="http://www.w3.org/1999/xlink" x="0px" y="0px"
	 viewBox="0 0 184 214" style="enable-background:new 0 0 184 214;" xml:space="preserve">
<style type="text/css">
	.st0{fill:none;stroke:#666666;stroke-width:4;stroke-linecap:round;stroke-linejoin:round;stroke-miterlimit:10;}
	.st1{fill:#666666;}
	.st2{fill:#F7F5F5;}
</style>
<path id="XMLID_4419_" class="st0" d="M94.8,8.9L94.8,8.9c-56.5,0-95.7,56.7-76.1,110l15.6,42.6c20.7,56.6,100.2,56.6,121,0
	l15.6-42.6C190.5,65.6,151.3,8.9,94.8,8.9L94.8,8.9z"/>
<g id="XMLID_4363_">
	<ellipse id="XMLID_4337_" class="st0" cx="60.6" cy="76.5" rx="23.5" ry="29.5"/>
	<ellipse id="XMLID_4410_" class="st0" cx="129" cy="76.5" rx="23.5" ry="29.5"/>
</g>
<line class="st0" x1="96" y1="128" x2="96" y2="106"/>
<path class="st0" d="M73.6,162.9c9.4-16.7,36.6-18.6,44.9,0.1"/>
<ellipse class="st0" cx="61.5" cy="89.4" rx="12.1" ry="12.9"/>
<ellipse class="st0" cx="127.5" cy="88.4" rx="12.1" ry="12.9"/>
<g>
	<g>
		<path class="st1" d="M58.7,90.5c4.5,0,4.5-7,0-7C54.2,83.5,54.2,90.5,58.7,90.5L58.7,90.5z"/>
	</g>
</g>
<g>
	<g>
		<path class="st1" d="M60,90.5c4.5,0,4.5-7,0-7C55.5,83.5,55.5,90.5,60,90.5L60,90.5z"/>
	</g>
</g>
<g>
	<g>
		<path class="st1" d="M60.3,94.7c6.4,0,6.4-10,0-10C53.9,84.7,53.9,94.7,60.3,94.7L60.3,94.7z"/>
	</g>
</g>
<g>
	<g>
		<path class="st1" d="M60.3,95c6.4,0,6.4-10,0-10C53.9,85,53.9,95,60.3,95L60.3,95z"/>
	</g>
</g>
<g>
	<g>
		<path class="st1" d="M60.3,95c6.4,0,6.4-10,0-10C53.9,85,53.9,95,60.3,95L60.3,95z"/>
	</g>
</g>
<g>
	<g>
		<path class="st1" d="M61.3,94.3c6.4,0,6.4-10,0-10C54.9,84.3,54.9,94.3,61.3,94.3L61.3,94.3z"/>
	</g>
</g>
<g>
	<g>
		<path class="st1" d="M61.7,94.3c6.4,0,6.4-10,0-10C55.2,84.3,55.2,94.3,61.7,94.3L61.7,94.3z"/>
	</g>
</g>
<g>
	<g>
		<path class="st1" d="M62,94c6.4,0,6.4-10,0-10C55.6,84,55.6,94,62,94L62,94z"/>
	</g>
</g>
<g>
	<g>
		<path class="st1" d="M62,93.3c6.4,0,6.4-10,0-10C55.6,83.3,55.6,93.3,62,93.3L62,93.3z"/>
	</g>
</g>
<g>
	<g>
		<path class="st1" d="M59.3,93.2c8.4,0,8.4-13,0-13C51,80.2,51,93.2,59.3,93.2L59.3,93.2z"/>
	</g>
</g>
<g>
	<g>
		<path class="st1" d="M59.3,93.2c8.4,0,8.4-13,0-13C51,80.2,51,93.2,59.3,93.2L59.3,93.2z"/>
	</g>
</g>
<g>
	<g>
		<path class="st1" d="M62.3,100c11.6,0,11.6-18,0-18C50.8,82,50.7,100,62.3,100L62.3,100z"/>
	</g>
</g>
<g>
	<g>
		<path class="st1" d="M62.3,100c11.6,0,11.6-18,0-18C50.8,82,50.7,100,62.3,100L62.3,100z"/>
	</g>
</g>
<g>
	<g>
		<path class="st1" d="M64.3,97.3c11.6,0,11.6-18,0-18C52.8,79.3,52.7,97.3,64.3,97.3L64.3,97.3z"/>
	</g>
</g>
<g>
	<g>
		<path class="st1" d="M61.3,95c11.6,0,11.6-18,0-18C49.8,77,49.7,95,61.3,95L61.3,95z"/>
	</g>
</g>
<g>
	<g>
		<path class="st1" d="M61,98c11.6,0,11.6-18,0-18C49.4,80,49.4,98,61,98L61,98z"/>
	</g>
</g>
<g>
	<g>
		<path class="st1" d="M59.7,99.7c11.6,0,11.6-18,0-18C48.1,81.7,48.1,99.7,59.7,99.7L59.7,99.7z"/>
	</g>
</g>
<g>
	<g>
		<path class="st1" d="M60,96c11.6,0,11.6-18,0-18C48.4,78,48.4,96,60,96L60,96z"/>
	</g>
</g>
<g>
	<g>
		<path class="st1" d="M50.3,89c0,0.1,0,0.2,0,0.3c0,1.2,0.2,2.4,0.8,3.5c0.4,1.1,1,2.1,1.9,2.9c0.8,0.9,1.8,1.5,2.9,1.9
			c1.1,0.6,2.2,0.8,3.5,0.8c2.3-0.1,4.7-0.9,6.4-2.6c1.6-1.8,2.6-3.9,2.6-6.4c0-0.1,0-0.2,0-0.3c0-1.2-0.2-2.4-0.8-3.5
			c-0.4-1.1-1-2.1-1.9-2.9c-0.8-0.9-1.8-1.5-2.9-1.9c-1.1-0.6-2.2-0.8-3.5-0.8c-2.3,0.1-4.7,0.9-6.4,2.6
			C51.4,84.4,50.3,86.6,50.3,89L50.3,89z"/>
	</g>
</g>
<g>
	<g>
		<path class="st1" d="M61.7,102.3c11.6,0,11.6-18,0-18C50.1,84.3,50.1,102.3,61.7,102.3L61.7,102.3z"/>
	</g>
</g>
<g>
	<g>
		<path class="st1" d="M61,103.3c11.6,0,11.6-18,0-18C49.4,85.3,49.4,103.3,61,103.3L61,103.3z"/>
	</g>
</g>
<g>
	<g>
		<path class="st1" d="M127,98.7c11.6,0,11.6-18,0-18C115.4,80.7,115.4,98.7,127,98.7L127,98.7z"/>
	</g>
</g>
<g>
	<g>
		<path class="st1" d="M126.7,97c11.6,0,11.6-18,0-18C115.1,79,115.1,97,126.7,97L126.7,97z"/>
	</g>
</g>
<g>
	<g>
		<path class="st1" d="M126.3,97c11.6,0,11.6-18,0-18C114.8,79,114.7,97,126.3,97L126.3,97z"/>
	</g>
</g>
<g>
	<g>
		<path class="st1" d="M124.7,98.3c11.6,0,11.6-18,0-18C113.1,80.3,113.1,98.3,124.7,98.3L124.7,98.3z"/>
	</g>
</g>
<g>
	<g>
		<path class="st1" d="M125,100c11.6,0,11.6-18,0-18C113.4,82,113.4,100,125,100L125,100z"/>
	</g>
</g>
<g>
	<g>
		<path class="st1" d="M126.3,100.7c11.6,0,11.6-18,0-18C114.8,82.7,114.7,100.7,126.3,100.7L126.3,100.7z"/>
	</g>
</g>
<g>
	<g>
		<path class="st1" d="M129.3,101c11.6,0,11.6-18,0-18C117.8,83,117.7,101,129.3,101L129.3,101z"/>
	</g>
</g>
<g>
	<g>
		<path class="st1" d="M131,98.3c11.6,0,11.6-18,0-18C119.4,80.3,119.4,98.3,131,98.3L131,98.3z"/>
	</g>
</g>
<g>
	<g>
		<path class="st1" d="M131.3,97c11.6,0,11.6-18,0-18C119.8,79,119.7,97,131.3,97L131.3,97z"/>
	</g>
</g>
<g>
	<g>
		<path class="st1" d="M129.3,96.3c11.6,0,11.6-18,0-18C117.8,78.3,117.7,96.3,129.3,96.3L129.3,96.3z"/>
	</g>
</g>
<g>
	<g>
		<path class="st1" d="M130,93.3c11.6,0,11.6-18,0-18C118.4,75.3,118.4,93.3,130,93.3L130,93.3z"/>
	</g>
</g>
<g>
	<g>
		<path class="st1" d="M130,93c11.6,0,11.6-18,0-18C118.4,75,118.4,93,130,93L130,93z"/>
	</g>
</g>
<g>
	<g>
		<path class="st1" d="M125.7,93c11.6,0,11.6-18,0-18C114.1,75,114.1,93,125.7,93L125.7,93z"/>
	</g>
</g>
<g>
	<g>
		<path class="st1" d="M125.3,93c11.6,0,11.6-18,0-18C113.8,75,113.7,93,125.3,93L125.3,93z"/>
	</g>
</g>
<g>
	<g>
		<path class="st1" d="M60,100c11.6,0,11.6-18,0-18C48.4,82,48.4,100,60,100L60,100z"/>
	</g>
</g>
<g>
	<g>
		<path class="st2" d="M121.7,97.2c5.8,0,5.8-9,0-9C115.9,88.2,115.9,97.2,121.7,97.2L121.7,97.2z"/>
	</g>
</g>
<g>
	<g>
		<path class="st2" d="M64.7,102.2c5.8,0,5.8-9,0-9C58.9,93.2,58.9,102.2,64.7,102.2L64.7,102.2z"/>
	</g>
</g>
</svg>
